<?xml version="1.0" encoding="UTF-8"?>
<svg xmlns="http://www.w3.org/2000/svg" xmlns:xlink="http://www.w3.org/1999/xlink" width="376.4pt" height="166.2pt" viewBox="0 0 376.4 166.2" version="1.1">
<defs>
<clipPath id="clip1">
  <path d="M 40 131 L 76 131 L 76 166.199219 L 40 166.199219 Z M 40 131 "/>
</clipPath>
<clipPath id="clip2">
  <path d="M 228 114 L 376.398438 114 L 376.398438 140 L 228 140 Z M 228 114 "/>
</clipPath>
<clipPath id="clip3">
  <path d="M 227 113 L 376.398438 113 L 376.398438 141 L 227 141 Z M 227 113 "/>
</clipPath>
<clipPath id="clip4">
  <path d="M 147 131 L 183 131 L 183 166.199219 L 147 166.199219 Z M 147 131 "/>
</clipPath>
</defs>
<g id="surface1">
<path style=" stroke:none;fill-rule:evenodd;fill:rgb(100%,100%,100%);fill-opacity:1;" d="M 58.679688 134.652344 C 66.304688 134.652344 72.480469 140.792969 72.480469 148.367188 C 72.480469 155.945313 66.304688 162.085938 58.679688 162.085938 C 51.058594 162.085938 44.882813 155.945313 44.882813 148.367188 C 44.882813 140.792969 51.058594 134.652344 58.679688 134.652344 Z M 58.679688 134.652344 "/>
<path style=" stroke:none;fill-rule:evenodd;fill:rgb(100%,100%,100%);fill-opacity:1;" d="M 164.84375 135.550781 C 172.464844 135.550781 178.644531 141.691406 178.644531 149.269531 C 178.644531 156.84375 172.464844 162.984375 164.84375 162.984375 C 157.222656 162.984375 151.042969 156.84375 151.042969 149.269531 C 151.042969 141.691406 157.222656 135.550781 164.84375 135.550781 Z M 164.84375 135.550781 "/>
<path style=" stroke:none;fill-rule:evenodd;fill:rgb(34.104919%,34.104919%,34.521484%);fill-opacity:1;" d="M 58.058594 133.785156 C 66.398438 133.785156 73.160156 140.546875 73.160156 148.886719 C 73.160156 157.226563 66.398438 163.988281 58.058594 163.988281 C 49.71875 163.988281 42.957031 157.226563 42.957031 148.886719 C 42.957031 140.546875 49.71875 133.785156 58.058594 133.785156 Z M 58.082031 137.359375 C 64.148438 137.359375 69.0625 142.277344 69.0625 148.339844 C 69.0625 154.402344 64.148438 159.320313 58.082031 159.320313 C 52.019531 159.320313 47.101563 154.402344 47.101563 148.339844 C 47.101563 142.277344 52.019531 137.359375 58.082031 137.359375 Z M 58.082031 137.359375 "/>
<path style=" stroke:none;fill-rule:evenodd;fill:rgb(50.584412%,45.483398%,74.414063%);fill-opacity:1;" d="M 86.125 126.898438 L 86.125 139.964844 L 71.265625 139.964844 L 66.921875 137.925781 L 66.921875 126.898438 Z M 86.125 126.898438 "/>
<path style=" stroke:none;fill-rule:evenodd;fill:rgb(50.584412%,45.483398%,74.414063%);fill-opacity:1;" d="M 66.785156 105.125 L 85.984375 105.125 L 85.984375 36.273438 L 66.785156 36.273438 Z M 66.785156 105.125 "/>
<path style=" stroke:none;fill-rule:evenodd;fill:rgb(50.584412%,45.483398%,74.414063%);fill-opacity:1;" d="M 66.921875 14.777344 L 86.125 14.777344 L 86.125 -0.046875 L 66.921875 -0.046875 Z M 66.921875 14.777344 "/>
<path style=" stroke:none;fill-rule:evenodd;fill:rgb(50.584412%,45.483398%,74.414063%);fill-opacity:1;" d="M 67.113281 29.234375 L 86.3125 29.234375 L 86.3125 21.265625 L 67.113281 21.265625 Z M 67.113281 29.234375 "/>
<path style=" stroke:none;fill-rule:evenodd;fill:rgb(50.584412%,45.483398%,74.414063%);fill-opacity:1;" d="M 66.796875 120.414063 L 85.996094 120.414063 L 85.996094 111.519531 L 66.796875 111.519531 Z M 66.796875 120.414063 "/>
<path style=" stroke:none;fill-rule:evenodd;fill:rgb(88.28125%,3.137207%,52.539063%);fill-opacity:1;" d="M 63.191406 128.90625 L 63.191406 134.632813 L 48.613281 136.363281 L 48.613281 128.90625 Z M 63.191406 128.90625 "/>
<path style=" stroke:none;fill-rule:evenodd;fill:rgb(88.28125%,3.137207%,52.539063%);fill-opacity:1;" d="M 48.613281 120.742188 L 63.191406 120.742188 L 63.191406 31.027344 L 48.613281 31.027344 Z M 48.613281 120.742188 "/>
<path style=" stroke:none;fill-rule:evenodd;fill:rgb(88.28125%,3.137207%,52.539063%);fill-opacity:1;" d="M 48.613281 22.867188 L 63.191406 22.867188 L 63.191406 10.507813 L 48.613281 10.507813 Z M 48.613281 22.867188 "/>
<g clip-path="url(#clip1)" clip-rule="nonzero">
<path style=" stroke:none;fill-rule:evenodd;fill:rgb(40.380859%,40.380859%,40.380859%);fill-opacity:1;" d="M 58.058594 131.609375 C 67.601563 131.609375 75.335938 139.34375 75.335938 148.886719 C 75.335938 158.429688 67.601563 166.164063 58.058594 166.164063 C 48.515625 166.164063 40.78125 158.429688 40.78125 148.886719 C 40.78125 139.34375 48.515625 131.609375 58.058594 131.609375 Z M 58.085938 135.699219 C 65.023438 135.699219 70.648438 141.324219 70.648438 148.261719 C 70.648438 155.199219 65.023438 160.824219 58.085938 160.824219 C 51.148438 160.824219 45.523438 155.199219 45.523438 148.261719 C 45.523438 141.324219 51.148438 135.699219 58.085938 135.699219 Z M 58.085938 135.699219 "/>
</g>
<path style=" stroke:none;fill-rule:evenodd;fill:rgb(41.184998%,40.380859%,41.967773%);fill-opacity:1;" d="M 181.269531 145.261719 L 220.554688 145.261719 L 220.554688 151.636719 L 181.496094 151.636719 C 181.621094 150.792969 181.6875 149.929688 181.6875 149.050781 C 181.6875 147.75 181.542969 146.480469 181.269531 145.261719 Z M 181.269531 145.261719 "/>
<path style=" stroke:none;fill-rule:evenodd;fill:rgb(41.184998%,40.380859%,41.967773%);fill-opacity:1;" d="M 74.953125 145.261719 L 148.601563 145.261719 C 148.324219 146.480469 148.179688 147.75 148.179688 149.050781 C 148.179688 149.929688 148.246094 150.792969 148.375 151.636719 L 75.121094 151.636719 C 75.265625 150.742188 75.339844 149.824219 75.339844 148.886719 C 75.339844 147.644531 75.207031 146.429688 74.953125 145.261719 Z M 74.953125 145.261719 "/>
<path style=" stroke:none;fill-rule:evenodd;fill:rgb(41.184998%,40.380859%,41.967773%);fill-opacity:1;" d="M 0.0546875 145.261719 L 41.164063 145.261719 C 40.914063 146.429688 40.78125 147.644531 40.78125 148.886719 C 40.78125 149.824219 40.855469 150.742188 41 151.636719 L 0.0546875 151.636719 Z M 0.0546875 145.261719 "/>
<path style=" stroke:none;fill-rule:evenodd;fill:rgb(41.184998%,40.380859%,41.967773%);fill-opacity:1;" d="M 58.367188 143.011719 C 61.320313 143.011719 63.710938 145.402344 63.710938 148.355469 C 63.710938 151.304688 61.320313 153.699219 58.367188 153.699219 C 55.414063 153.699219 53.023438 151.304688 53.023438 148.355469 C 53.023438 145.402344 55.414063 143.011719 58.367188 143.011719 Z M 58.367188 143.011719 "/>
<path style=" stroke:none;fill-rule:evenodd;fill:rgb(67.771912%,28.637695%,54.881287%);fill-opacity:1;" d="M 91.738281 141.792969 L 120.195313 141.792969 L 120.195313 128.578125 L 91.738281 128.578125 Z M 91.738281 141.792969 "/>
<path style=" stroke:none;fill-rule:evenodd;fill:rgb(67.771912%,28.637695%,54.881287%);fill-opacity:1;" d="M 91.535156 106.542969 L 119.992188 106.542969 L 119.992188 36.886719 L 91.535156 36.886719 Z M 91.535156 106.542969 "/>
<path style=" stroke:none;fill-rule:evenodd;fill:rgb(67.771912%,28.637695%,54.881287%);fill-opacity:1;" d="M 91.738281 15.136719 L 120.195313 15.136719 L 120.195313 0.136719 L 91.738281 0.136719 Z M 91.738281 15.136719 "/>
<path style=" stroke:none;fill-rule:evenodd;fill:rgb(67.771912%,28.637695%,54.881287%);fill-opacity:1;" d="M 92.019531 29.761719 L 120.476563 29.761719 L 120.476563 21.699219 L 92.019531 21.699219 Z M 92.019531 29.761719 "/>
<path style=" stroke:none;fill-rule:evenodd;fill:rgb(67.771912%,28.637695%,54.881287%);fill-opacity:1;" d="M 91.550781 122.015625 L 120.007813 122.015625 L 120.007813 113.015625 L 91.550781 113.015625 Z M 91.550781 122.015625 "/>
<path style=" stroke:none;fill-rule:evenodd;fill:rgb(98.4375%,88.28125%,8.616638%);fill-opacity:1;" d="M 130.101563 141.570313 L 143.066406 141.570313 L 143.066406 129.09375 L 130.101563 129.09375 Z M 130.101563 141.570313 "/>
<path style=" stroke:none;fill-rule:evenodd;fill:rgb(98.4375%,88.28125%,8.616638%);fill-opacity:1;" d="M 130.007813 121.878906 L 143.066406 121.878906 L 143.066406 38.003906 L 130.007813 38.003906 Z M 130.007813 121.878906 "/>
<path style=" stroke:none;fill-rule:evenodd;fill:rgb(98.4375%,88.28125%,8.616638%);fill-opacity:1;" d="M 130.058594 30.683594 L 143.066406 30.683594 L 143.066406 19.59375 L 130.058594 19.59375 Z M 130.058594 30.683594 "/>
<path style=" stroke:none;fill-rule:evenodd;fill:rgb(87.889099%,61.914063%,0%);fill-opacity:1;" d="M 167.875 129.992188 L 167.875 136.527344 L 157.347656 136.527344 L 149.875 140.886719 L 149.875 129.992188 Z M 167.875 129.992188 "/>
<path style=" stroke:none;fill-rule:evenodd;fill:rgb(87.889099%,61.914063%,0%);fill-opacity:1;" d="M 149.765625 110.910156 L 167.941406 110.910156 L 167.941406 49.117188 L 149.765625 49.117188 Z M 149.765625 110.910156 "/>
<path style=" stroke:none;fill-rule:evenodd;fill:rgb(87.889099%,61.914063%,0%);fill-opacity:1;" d="M 149.78125 29.769531 L 167.96875 29.769531 L 167.96875 16.921875 L 149.78125 16.921875 Z M 149.78125 29.769531 "/>
<path style=" stroke:none;fill-rule:evenodd;fill:rgb(87.889099%,61.914063%,0%);fill-opacity:1;" d="M 149.765625 43.320313 L 167.894531 43.320313 L 167.894531 35.351563 L 149.765625 35.351563 Z M 149.765625 43.320313 "/>
<path style=" stroke:none;fill-rule:evenodd;fill:rgb(87.889099%,61.914063%,0%);fill-opacity:1;" d="M 149.765625 124.457031 L 167.847656 124.457031 L 167.847656 116.957031 L 149.765625 116.957031 Z M 149.765625 124.457031 "/>
<path style=" stroke:none;fill-rule:evenodd;fill:rgb(86.71875%,16.868591%,10.984802%);fill-opacity:1;" d="M 182.578125 135.023438 L 182.578125 141.453125 L 175.777344 141.453125 L 173.773438 140.253906 L 172.574219 139.257813 L 172.574219 135.023438 Z M 182.578125 135.023438 "/>
<path style=" stroke:none;fill-rule:evenodd;fill:rgb(86.71875%,16.868591%,10.984802%);fill-opacity:1;" d="M 172.574219 126.632813 L 182.578125 126.632813 L 182.578125 15.023438 L 172.574219 15.023438 Z M 172.574219 126.632813 "/>
<path style=" stroke:none;fill-rule:evenodd;fill:rgb(86.71875%,16.868591%,10.984802%);fill-opacity:1;" d="M 172.574219 5.929688 L 182.578125 5.929688 L 182.578125 0.078125 L 172.574219 0.078125 Z M 172.574219 5.929688 "/>
<path style=" stroke:none;fill-rule:evenodd;fill:rgb(11.376953%,22.363281%,53.709412%);fill-opacity:1;" d="M 47.851563 31.789063 L 45.398438 41.027344 L 32.046875 36.882813 L 34.421875 27.730469 Z M 43.371094 48.664063 L 23.464844 123.632813 L 10.535156 119.824219 L 30.109375 44.359375 Z M 21.539063 130.878906 L 18.859375 140.980469 L 5.921875 137.605469 L 8.625 127.175781 Z M 21.539063 130.878906 "/>
<path style=" stroke:none;fill-rule:evenodd;fill:rgb(6.272888%,27.830505%,54.492188%);fill-opacity:1;" d="M 227.644531 78.007813 L 242.40625 78.007813 C 244.867188 78.007813 246.753906 78.726563 248.070313 80.15625 C 249.390625 81.582031 250.046875 83.355469 250.046875 85.464844 C 250.046875 87.234375 249.578125 88.753906 248.636719 90.015625 C 248.011719 90.867188 247.09375 91.53125 245.886719 92.023438 C 247.722656 92.539063 249.0625 93.425781 249.929688 94.6875 C 250.789063 95.949219 251.222656 97.53125 251.222656 99.433594 C 251.222656 100.988281 250.914063 102.382813 250.304688 103.621094 C 249.6875 104.863281 248.84375 105.839844 247.78125 106.5625 C 247.117188 107.007813 246.117188 107.335938 244.78125 107.539063 C 243.007813 107.808594 241.832031 107.949219 241.25 107.949219 L 227.644531 107.949219 Z M 235.585938 89.757813 L 239.023438 89.757813 C 240.253906 89.757813 241.113281 89.507813 241.59375 89.011719 C 242.074219 88.511719 242.320313 87.792969 242.320313 86.851563 C 242.320313 85.980469 242.074219 85.296875 241.59375 84.8125 C 241.113281 84.316406 240.269531 84.070313 239.078125 84.070313 L 235.585938 84.070313 Z M 235.585938 101.511719 L 239.605469 101.511719 C 240.964844 101.511719 241.921875 101.222656 242.480469 100.660156 C 243.039063 100.09375 243.316406 99.34375 243.316406 98.386719 C 243.316406 97.503906 243.042969 96.792969 242.492188 96.253906 C 241.9375 95.71875 240.972656 95.445313 239.589844 95.445313 L 235.585938 95.445313 Z M 270.992188 78.007813 L 278.863281 78.007813 L 278.863281 95.84375 C 278.863281 97.605469 278.628906 99.28125 278.160156 100.847656 C 277.691406 102.421875 276.953125 103.796875 275.949219 104.972656 C 274.945313 106.152344 273.894531 106.972656 272.796875 107.453125 C 271.265625 108.117188 269.425781 108.453125 267.28125 108.453125 C 266.042969 108.453125 264.6875 108.347656 263.222656 108.144531 C 261.753906 107.941406 260.527344 107.539063 259.542969 106.933594 C 258.554688 106.324219 257.652344 105.46875 256.839844 104.351563 C 256.019531 103.238281 255.460938 102.089844 255.160156 100.902344 C 254.671875 99 254.429688 97.3125 254.429688 95.84375 L 254.429688 78.007813 L 262.300781 78.007813 L 262.300781 96.269531 C 262.300781 97.898438 262.6875 99.175781 263.453125 100.089844 C 264.226563 101.007813 265.292969 101.46875 266.660156 101.46875 C 268.007813 101.46875 269.070313 101.015625 269.839844 100.109375 C 270.609375 99.210938 270.992188 97.925781 270.992188 96.269531 Z M 282.710938 98.046875 L 290.191406 97.496094 C 290.351563 98.917969 290.6875 100.003906 291.183594 100.742188 C 291.996094 101.949219 293.15625 102.554688 294.664063 102.554688 C 295.785156 102.554688 296.652344 102.25 297.257813 101.628906 C 297.867188 101.007813 298.171875 100.289063 298.171875 99.476563 C 298.171875 98.703125 297.886719 98.003906 297.3125 97.390625 C 296.734375 96.777344 295.394531 96.207031 293.285156 95.65625 C 289.832031 94.75 287.371094 93.535156 285.902344 92.023438 C 284.417969 90.519531 283.675781 88.59375 283.675781 86.253906 C 283.675781 84.71875 284.054688 83.269531 284.8125 81.90625 C 285.574219 80.53125 286.714844 79.457031 288.238281 78.675781 C 289.765625 77.898438 291.855469 77.507813 294.507813 77.507813 C 297.769531 77.507813 300.25 78.21875 301.960938 79.644531 C 303.667969 81.066406 304.683594 83.332031 305.011719 86.441406 L 297.601563 86.957031 C 297.40625 85.597656 296.988281 84.609375 296.359375 83.996094 C 295.726563 83.375 294.851563 83.070313 293.742188 83.070313 C 292.828125 83.070313 292.132813 83.296875 291.671875 83.75 C 291.207031 84.203125 290.976563 84.761719 290.976563 85.417969 C 290.976563 85.890625 291.167969 86.316406 291.539063 86.699219 C 291.902344 87.097656 292.78125 87.460938 294.171875 87.800781 C 297.613281 88.671875 300.078125 89.558594 301.5625 90.449219 C 303.050781 91.339844 304.136719 92.441406 304.816406 93.765625 C 305.492188 95.082031 305.832031 96.5625 305.832031 98.199219 C 305.832031 100.117188 305.378906 101.886719 304.476563 103.511719 C 303.566406 105.128906 302.308594 106.359375 300.683594 107.195313 C 299.0625 108.035156 297.019531 108.453125 294.550781 108.453125 C 290.214844 108.453125 287.210938 107.46875 285.542969 105.511719 C 283.875 103.550781 282.933594 101.0625 282.710938 98.046875 Z M 282.710938 98.046875 "/>
<path style="fill-rule:evenodd;fill:rgb(19.213867%,19.213867%,18.821716%);fill-opacity:1;stroke-width:2.16;stroke-linecap:butt;stroke-linejoin:miter;stroke:rgb(19.213867%,19.213867%,18.821716%);stroke-opacity:1;stroke-miterlimit:4;" d="M 3174.414063 576.53125 L 3174.414063 707.78125 L 3219.21875 707.78125 C 3264.140625 707.78125 3286.601563 686.492188 3286.601563 643.796875 C 3286.601563 623.367188 3280.46875 607.078125 3268.203125 594.851563 C 3255.976563 582.625 3239.648438 576.53125 3219.21875 576.53125 Z M 3202.890625 683.757813 L 3202.890625 600.554688 L 3217.03125 600.554688 C 3229.375 600.554688 3239.023438 604.382813 3246.09375 612.078125 C 3253.085938 619.773438 3256.601563 630.203125 3256.601563 643.484375 C 3256.601563 655.984375 3253.125 665.789063 3246.171875 672.976563 C 3239.179688 680.125 3229.453125 683.757813 3216.835938 683.757813 Z M 3383.476563 576.53125 L 3307.578125 576.53125 L 3307.578125 707.78125 L 3380.546875 707.78125 L 3380.546875 683.757813 L 3336.09375 683.757813 L 3336.09375 654.539063 L 3377.460938 654.539063 L 3377.460938 630.554688 L 3336.09375 630.554688 L 3336.09375 600.554688 L 3383.476563 600.554688 Z M 3528.867188 576.53125 L 3453.554688 576.53125 L 3453.554688 707.78125 L 3482.070313 707.78125 L 3482.070313 600.554688 L 3528.867188 600.554688 Z M 3661.132813 576.53125 L 3630.078125 576.53125 L 3621.054688 605.75 L 3576.09375 605.75 L 3567.1875 576.53125 L 3536.289063 576.53125 L 3582.34375 707.78125 L 3616.132813 707.78125 Z M 3614.53125 628.445313 L 3600.976563 672.546875 C 3599.960938 675.867188 3599.257813 679.8125 3598.828125 684.34375 L 3598.125 684.34375 C 3597.8125 680.515625 3597.109375 676.726563 3595.9375 672.9375 L 3582.1875 628.445313 Z M 3614.53125 628.445313 " transform="matrix(0.1,0,0,-0.1,0,166.2)"/>
<g clip-path="url(#clip2)" clip-rule="nonzero">
<path style=" stroke:none;fill-rule:evenodd;fill:rgb(19.213867%,19.213867%,18.821716%);fill-opacity:1;" d="M 243.355469 139.285156 L 228.871094 139.285156 L 228.871094 114.964844 L 234.355469 114.964844 L 234.355469 134.839844 L 243.355469 134.839844 Z M 261.214844 139.285156 L 246.625 139.285156 L 246.625 114.964844 L 260.652344 114.964844 L 260.652344 119.421875 L 252.109375 119.421875 L 252.109375 124.835938 L 260.0625 124.835938 L 260.0625 129.277344 L 252.109375 129.277344 L 252.109375 134.839844 L 261.214844 134.839844 Z M 282.550781 138.421875 C 280.777344 139.28125 278.457031 139.707031 275.597656 139.707031 C 271.867188 139.707031 268.933594 138.613281 266.796875 136.421875 C 264.65625 134.226563 263.589844 131.300781 263.589844 127.648438 C 263.589844 123.757813 264.789063 120.605469 267.191406 118.183594 C 269.59375 115.765625 272.714844 114.554688 276.546875 114.554688 C 278.917969 114.554688 280.921875 114.855469 282.550781 115.457031 L 282.550781 120.730469 C 280.921875 119.757813 279.070313 119.273438 276.984375 119.273438 C 274.707031 119.273438 272.859375 119.992188 271.457031 121.425781 C 270.054688 122.863281 269.355469 124.808594 269.355469 127.261719 C 269.355469 129.613281 270.015625 131.488281 271.339844 132.882813 C 272.660156 134.277344 274.445313 134.980469 276.683594 134.980469 C 278.820313 134.980469 280.777344 134.457031 282.550781 133.414063 Z M 303.871094 119.421875 L 296.929688 119.421875 L 296.929688 139.285156 L 291.4375 139.285156 L 291.4375 119.421875 L 284.535156 119.421875 L 284.535156 114.964844 L 303.871094 114.964844 Z M 326.96875 128.753906 C 326.96875 136.054688 323.566406 139.707031 316.765625 139.707031 C 310.160156 139.707031 306.859375 136.144531 306.859375 129.011719 L 306.859375 114.964844 L 312.351563 114.964844 L 312.351563 129.074219 C 312.351563 133.011719 313.894531 134.980469 316.964844 134.980469 C 319.984375 134.980469 321.492188 133.082031 321.492188 129.277344 L 321.492188 114.964844 L 326.96875 114.964844 Z M 352.667969 139.285156 L 346.375 139.285156 L 342.597656 133.027344 C 342.3125 132.554688 342.039063 132.128906 341.78125 131.753906 C 341.519531 131.382813 341.257813 131.066406 340.992188 130.800781 C 340.726563 130.53125 340.449219 130.332031 340.160156 130.1875 C 339.867188 130.046875 339.558594 129.976563 339.222656 129.976563 L 337.746094 129.976563 L 337.746094 139.285156 L 332.261719 139.285156 L 332.261719 114.964844 L 340.945313 114.964844 C 346.851563 114.964844 349.804688 117.171875 349.804688 121.578125 C 349.804688 122.425781 349.671875 123.210938 349.410156 123.925781 C 349.148438 124.644531 348.785156 125.292969 348.308594 125.871094 C 347.835938 126.445313 347.261719 126.941406 346.589844 127.359375 C 345.914063 127.78125 345.167969 128.105469 344.339844 128.34375 L 344.339844 128.414063 C 344.703125 128.53125 345.050781 128.710938 345.390625 128.964844 C 345.734375 129.21875 346.058594 129.515625 346.375 129.855469 C 346.695313 130.195313 346.996094 130.5625 347.285156 130.949219 C 347.574219 131.335938 347.835938 131.71875 348.074219 132.097656 Z M 337.746094 119.070313 L 337.746094 125.835938 L 340.117188 125.835938 C 341.292969 125.835938 342.238281 125.496094 342.949219 124.820313 C 343.671875 124.128906 344.039063 123.273438 344.039063 122.261719 C 344.039063 120.128906 342.765625 119.070313 340.214844 119.070313 Z M 376.328125 139.285156 L 370.359375 139.285156 L 368.628906 133.875 L 359.980469 133.875 L 358.269531 139.285156 L 352.328125 139.285156 L 361.183594 114.964844 L 367.679688 114.964844 Z M 367.375 129.671875 L 364.761719 121.496094 C 364.570313 120.882813 364.433594 120.152344 364.351563 119.308594 L 364.21875 119.308594 C 364.160156 120.019531 364.023438 120.726563 363.796875 121.425781 L 361.148438 129.671875 Z M 367.375 129.671875 "/>
</g>
<g clip-path="url(#clip3)" clip-rule="nonzero">
<path style="fill:none;stroke-width:2.16;stroke-linecap:butt;stroke-linejoin:miter;stroke:rgb(19.213867%,19.213867%,18.821716%);stroke-opacity:1;stroke-miterlimit:4;" d="M 2433.554688 269.148438 L 2288.710938 269.148438 L 2288.710938 512.351563 L 2343.554688 512.351563 L 2343.554688 313.601563 L 2433.554688 313.601563 Z M 2612.148438 269.148438 L 2466.25 269.148438 L 2466.25 512.351563 L 2606.523438 512.351563 L 2606.523438 467.78125 L 2521.09375 467.78125 L 2521.09375 413.640625 L 2600.625 413.640625 L 2600.625 369.226563 L 2521.09375 369.226563 L 2521.09375 313.601563 L 2612.148438 313.601563 Z M 2825.507813 277.78125 C 2807.773438 269.1875 2784.570313 264.929688 2755.976563 264.929688 C 2718.671875 264.929688 2689.335938 275.867188 2667.96875 297.78125 C 2646.5625 319.734375 2635.898438 348.992188 2635.898438 385.515625 C 2635.898438 424.421875 2647.890625 455.945313 2671.914063 480.164063 C 2695.9375 504.34375 2727.148438 516.453125 2765.46875 516.453125 C 2789.179688 516.453125 2809.21875 513.445313 2825.507813 507.429688 L 2825.507813 454.695313 C 2809.21875 464.421875 2790.703125 469.265625 2769.84375 469.265625 C 2747.070313 469.265625 2728.59375 462.078125 2714.570313 447.742188 C 2700.546875 433.367188 2693.554688 413.914063 2693.554688 389.382813 C 2693.554688 365.867188 2700.15625 347.117188 2713.398438 333.171875 C 2726.601563 319.226563 2744.453125 312.195313 2766.835938 312.195313 C 2788.203125 312.195313 2807.773438 317.429688 2825.507813 327.859375 Z M 3038.710938 467.78125 L 2969.296875 467.78125 L 2969.296875 269.148438 L 2914.375 269.148438 L 2914.375 467.78125 L 2845.351563 467.78125 L 2845.351563 512.351563 L 3038.710938 512.351563 Z M 3269.6875 374.460938 C 3269.6875 301.453125 3235.664063 264.929688 3167.65625 264.929688 C 3101.601563 264.929688 3068.59375 300.554688 3068.59375 371.882813 L 3068.59375 512.351563 L 3123.515625 512.351563 L 3123.515625 371.257813 C 3123.515625 331.882813 3138.945313 312.195313 3169.648438 312.195313 C 3199.84375 312.195313 3214.921875 331.179688 3214.921875 369.226563 L 3214.921875 512.351563 L 3269.6875 512.351563 Z M 3526.679688 269.148438 L 3463.75 269.148438 L 3425.976563 331.726563 C 3423.125 336.453125 3420.390625 340.710938 3417.8125 344.460938 C 3415.195313 348.171875 3412.578125 351.335938 3409.921875 353.992188 C 3407.265625 356.6875 3404.492188 358.679688 3401.601563 360.125 C 3398.671875 361.53125 3395.585938 362.234375 3392.226563 362.234375 L 3377.460938 362.234375 L 3377.460938 269.148438 L 3322.617188 269.148438 L 3322.617188 512.351563 L 3409.453125 512.351563 C 3468.515625 512.351563 3498.046875 490.28125 3498.046875 446.21875 C 3498.046875 437.742188 3496.71875 429.890625 3494.101563 422.742188 C 3491.484375 415.554688 3487.851563 409.070313 3483.085938 403.289063 C 3478.359375 397.546875 3472.617188 392.585938 3465.898438 388.40625 C 3459.140625 384.1875 3451.679688 380.945313 3443.398438 378.5625 L 3443.398438 377.859375 C 3447.03125 376.6875 3450.507813 374.890625 3453.90625 372.351563 C 3457.34375 369.8125 3460.585938 366.84375 3463.75 363.445313 C 3466.953125 360.046875 3469.960938 356.375 3472.851563 352.507813 C 3475.742188 348.640625 3478.359375 344.8125 3480.742188 341.023438 Z M 3377.460938 471.296875 L 3377.460938 403.640625 L 3401.171875 403.640625 C 3412.929688 403.640625 3422.382813 407.039063 3429.492188 413.796875 C 3436.71875 420.710938 3440.390625 429.265625 3440.390625 439.382813 C 3440.390625 460.710938 3427.65625 471.296875 3402.148438 471.296875 Z M 3763.28125 269.148438 L 3703.59375 269.148438 L 3686.289063 323.25 L 3599.804688 323.25 L 3582.695313 269.148438 L 3523.28125 269.148438 L 3611.835938 512.351563 L 3676.796875 512.351563 Z M 3673.75 365.28125 L 3647.617188 447.039063 C 3645.703125 453.171875 3644.335938 460.476563 3643.515625 468.914063 L 3642.1875 468.914063 C 3641.601563 461.804688 3640.234375 454.734375 3637.96875 447.742188 L 3611.484375 365.28125 Z M 3673.75 365.28125 " transform="matrix(0.1,0,0,-0.1,0,166.2)"/>
</g>
<path style=" stroke:none;fill-rule:evenodd;fill:rgb(49.021912%,48.631287%,50.976563%);fill-opacity:1;" d="M 185.570313 37.859375 L 187.402344 48.351563 L 201.15625 45.648438 L 199.367188 35.085938 Z M 188.203125 52.9375 L 189.375 59.664063 L 203.078125 56.96875 L 201.898438 50.015625 Z M 190.171875 64.222656 L 199.285156 116.410156 L 212.699219 113.773438 L 203.8125 61.3125 Z M 200.082031 120.980469 L 201.277344 127.824219 L 214.636719 125.199219 L 213.4375 118.132813 Z M 202.074219 132.402344 L 203.71875 141.808594 L 217.070313 139.558594 L 215.375 129.566406 Z M 202.074219 132.402344 "/>
<path style=" stroke:none;fill-rule:evenodd;fill:rgb(34.104919%,34.104919%,34.521484%);fill-opacity:1;" d="M 164.816406 133.796875 C 173.15625 133.796875 179.917969 140.558594 179.917969 148.902344 C 179.917969 157.242188 173.15625 164.003906 164.816406 164.003906 C 156.476563 164.003906 149.714844 157.242188 149.714844 148.902344 C 149.714844 140.558594 156.476563 133.796875 164.816406 133.796875 Z M 164.839844 137.371094 C 170.902344 137.371094 175.820313 142.289063 175.820313 148.351563 C 175.820313 154.417969 170.902344 159.332031 164.839844 159.332031 C 158.777344 159.332031 153.859375 154.417969 153.859375 148.351563 C 153.859375 142.289063 158.777344 137.371094 164.839844 137.371094 Z M 164.839844 137.371094 "/>
<g clip-path="url(#clip4)" clip-rule="nonzero">
<path style=" stroke:none;fill-rule:evenodd;fill:rgb(40.380859%,40.380859%,40.380859%);fill-opacity:1;" d="M 164.816406 131.621094 C 174.359375 131.621094 182.09375 139.359375 182.09375 148.902344 C 182.09375 158.441406 174.359375 166.179688 164.816406 166.179688 C 155.273438 166.179688 147.539063 158.441406 147.539063 148.902344 C 147.539063 139.359375 155.273438 131.621094 164.816406 131.621094 Z M 164.84375 135.710938 C 171.78125 135.710938 177.40625 141.335938 177.40625 148.273438 C 177.40625 155.210938 171.78125 160.835938 164.84375 160.835938 C 157.90625 160.835938 152.28125 155.210938 152.28125 148.273438 C 152.28125 141.335938 157.90625 135.710938 164.84375 135.710938 Z M 164.84375 135.710938 "/>
</g>
<path style=" stroke:none;fill-rule:evenodd;fill:rgb(41.184998%,40.380859%,41.967773%);fill-opacity:1;" d="M 165.125 143.023438 C 168.074219 143.023438 170.46875 145.417969 170.46875 148.367188 C 170.46875 151.320313 168.074219 153.710938 165.125 153.710938 C 162.171875 153.710938 159.78125 151.320313 159.78125 148.367188 C 159.78125 145.417969 162.171875 143.023438 165.125 143.023438 Z M 165.125 143.023438 "/>
</g>
</svg>
